<svg width="20" height="21" viewBox="0 0 20 21" fill="none" xmlns="http://www.w3.org/2000/svg">
<path d="M19.175 16.0625L17.175 14.0625V2.91248H6.025L4.025 0.912476H17.175C17.725 0.912476 18.196 1.10814 18.588 1.49948C18.9793 1.89148 19.175 2.36248 19.175 2.91248V16.0625ZM17.275 19.8125L16.375 18.9125H3.175C2.625 18.9125 2.154 18.7168 1.762 18.3255C1.37067 17.9335 1.175 17.4625 1.175 16.9125V3.71248L0.275 2.81248C0.0916665 2.62914 0 2.39581 0 2.11248C0 1.82914 0.0916665 1.59581 0.275 1.41248C0.458333 1.22914 0.691667 1.13748 0.975 1.13748C1.25833 1.13748 1.49167 1.22914 1.675 1.41248L18.675 18.4125C18.8583 18.5958 18.95 18.8291 18.95 19.1125C18.95 19.3958 18.8583 19.6291 18.675 19.8125C18.4917 19.9958 18.2583 20.0875 17.975 20.0875C17.6917 20.0875 17.4583 19.9958 17.275 19.8125ZM9.425 13.9125L10.25 12.8125L3.175 5.73748V16.9125H14.35L12.35 14.9125H5.175C4.975 14.9125 4.825 14.8208 4.725 14.6375C4.625 14.4541 4.64167 14.2791 4.775 14.1125L6.775 11.4375C6.875 11.3041 7.00833 11.2375 7.175 11.2375C7.34167 11.2375 7.475 11.3041 7.575 11.4375L9.425 13.9125Z" fill="black"/>
</svg>
