<svg width="30" height="30" viewBox="0 0 30 30" fill="none" xmlns="http://www.w3.org/2000/svg">
<path d="M27.2954 0.928125H2.92041C1.88447 0.928125 1.04541 1.76719 1.04541 2.80313V27.1781C1.04541 28.2141 1.88447 29.0531 2.92041 29.0531H27.2954C28.3313 29.0531 29.1704 28.2141 29.1704 27.1781V2.80313C29.1704 1.76719 28.3313 0.928125 27.2954 0.928125Z" fill="#689F38"/>
<path d="M25.8189 0.928125H2.80323C2.33807 0.9315 1.89292 1.11778 1.564 1.44671C1.23507 1.77563 1.04879 2.22078 1.04542 2.68594V25.6313C1.04307 26.6016 1.82823 27.3867 2.79854 27.3891H25.7954C26.7657 27.3914 27.5509 26.6063 27.5532 25.6359V2.68594C27.5743 1.73672 26.8196 0.949219 25.8704 0.928125H25.8189Z" fill="#7CB342"/>
<path opacity="0.3" d="M9.4126 3.01406C9.4126 2.475 9.0376 2.31094 6.88135 2.38125C5.07666 2.45156 4.18604 2.6625 3.64697 3.31875C3.10791 3.975 2.96729 5.31094 2.94385 6.90469C2.94385 8.02969 2.94385 9.08438 3.52979 9.08438C4.32666 9.08438 4.32666 7.23281 4.98291 6.20156C6.24854 4.1625 9.4126 3.71719 9.4126 3.01406Z" fill="white"/>
<path d="M10.1391 25.6547C9.68739 25.6672 9.24393 25.5322 8.87596 25.2699C8.50798 25.0077 8.23556 24.6326 8.10001 24.2016L4.56094 13.5375C4.21876 12.4102 4.85626 11.2172 5.9836 10.875C7.07344 10.5445 8.23125 11.1281 8.61563 12.2016L10.9125 19.1156L21.9516 5.14687C22.6828 4.22109 24.0258 4.06406 24.9516 4.79531C25.8773 5.52656 26.0344 6.86953 25.3031 7.79531L11.8031 24.8344C11.6056 25.0878 11.3533 25.2932 11.0651 25.4353C10.7769 25.5773 10.4604 25.6523 10.1391 25.6547Z" fill="#FBF9F9"/>
</svg>
