<svg width="30" height="30" viewBox="0 0 30 30" fill="none" xmlns="http://www.w3.org/2000/svg">
<path d="M12.1359 20.1234C11.9109 20.3391 11.6812 20.0883 11.6812 20.0883C11.6812 20.0883 7.82102 16.0945 7.57258 15.9187C7.22102 15.668 6.47102 15.2789 5.73274 16.057C5.42571 16.3805 4.92414 17.0977 5.88274 18.232C6.08899 18.4758 12.1007 24.6633 12.4499 24.9961C12.4499 24.9961 15.2249 27.6328 16.8937 28.6172C17.3577 28.8914 17.8781 29.1797 18.4851 29.3789C19.0898 29.5781 19.7718 29.7117 20.489 29.7047C21.2062 29.7047 21.9491 29.557 22.6499 29.2922C23.3507 29.025 24.0023 28.6383 24.5929 28.1953C24.7382 28.0828 24.8835 27.968 25.0218 27.8484L25.4179 27.5133C25.6945 27.2766 25.9499 27.0305 26.196 26.775C26.6905 26.2687 27.1359 25.732 27.5273 25.1813C27.9163 24.6281 28.2468 24.0562 28.507 23.4891C28.7671 22.9219 28.9499 22.3523 29.0554 21.8133C29.1679 21.2766 29.196 20.7703 29.1726 20.332C29.1632 19.8914 29.0718 19.5141 28.9945 19.2141C28.9077 18.9141 28.8187 18.6891 28.746 18.5414C28.6757 18.3938 28.6382 18.3141 28.6382 18.3141C28.5398 18.0492 28.4484 17.7961 28.3616 17.5688C28.1273 16.9266 27.8577 16.2047 27.5765 15.4641C27.457 15.15 27.403 15.007 27.403 15.007L27.4054 15.0117C26.3741 12.3094 25.2656 9.52266 25.2656 9.52266C25.0968 9.03281 24.4968 8.86641 24.0562 9.18984C22.7929 10.1203 22.4179 11.4609 22.8843 12.8812L24.0749 16.0266C24.2413 16.3781 23.7984 16.7906 23.4937 16.5492C22.5374 15.7898 20.5101 13.6875 20.5101 13.6875C19.6054 12.8391 14.496 7.72266 14.1515 7.41094C13.4648 6.78516 12.6023 6.46875 11.953 6.95859C11.2921 7.45547 11.114 8.21719 11.7679 9.0375C11.946 9.26016 17.1116 14.5922 17.1116 14.5922C17.414 14.9016 17.0671 15.3445 16.7366 15.0469C16.7366 15.0469 10.3101 8.49844 10.0195 8.19141C9.36086 7.49531 8.31555 7.35234 7.70383 7.93828C7.10617 8.5125 7.13196 9.44297 7.79992 10.1648C8.01321 10.3945 12.539 15.0633 14.3531 16.9758C14.4749 17.1047 14.5687 17.2758 14.3952 17.4422C14.3929 17.4445 14.2171 17.6414 13.9827 17.3953C13.4906 16.882 8.57102 11.8758 8.2968 11.6039C7.66868 10.9828 6.83196 10.6945 6.17102 11.3156C5.56633 11.8828 5.47961 12.8578 6.18977 13.5398L12.1499 19.6945C12.1546 19.6969 12.3468 19.9219 12.1359 20.1234Z" fill="#FAC036"/>
<path d="M9.9305 18.6422C9.80863 18.9281 9.49691 18.7852 9.49691 18.7852C9.49691 18.7852 4.38753 16.6078 4.08987 16.5422C3.668 16.4484 2.82659 16.3828 2.44925 17.3859C2.29222 17.8031 2.10941 18.6586 3.43362 19.3313C3.71956 19.4766 11.6625 22.8352 12.1149 23.0086C12.1149 23.0086 15.6961 24.3586 17.618 24.6141C18.1524 24.6844 18.7453 24.75 19.3805 24.6961C20.0157 24.6445 20.6953 24.5039 21.3516 24.2156C22.0125 23.9367 22.6383 23.5102 23.1797 22.9945C23.7211 22.4766 24.1711 21.8672 24.5414 21.2297C24.6328 21.0703 24.7219 20.9086 24.8016 20.7445L25.0383 20.2828C25.2 19.957 25.3407 19.6289 25.4696 19.3008C25.7297 18.6422 25.9289 17.9742 26.0766 17.3133C26.2196 16.6523 26.3016 15.9984 26.3203 15.3727C26.3391 14.7469 26.2852 14.1516 26.175 13.6148C26.0719 13.0758 25.8985 12.6 25.7063 12.2039C25.5258 11.8008 25.2938 11.4914 25.1086 11.243C24.9118 11.0016 24.743 10.8281 24.6188 10.7203C24.4969 10.6125 24.4313 10.5539 24.4313 10.5539C24.2391 10.3477 24.0539 10.1508 23.8875 9.975C23.4211 9.47344 22.8914 8.91562 22.3453 8.34375C22.1133 8.1 22.0078 7.99219 22.0078 7.99219L22.0125 7.99687C20.0086 5.90859 17.9039 3.77344 17.9039 3.77344C17.5594 3.38672 16.9407 3.46875 16.6617 3.9375C15.8602 5.2875 16.036 6.66563 17.018 7.79297L19.3383 10.2281C19.6289 10.4859 19.3805 11.0391 19.0055 10.9359C17.8289 10.6078 15.1453 9.45938 15.1453 9.45938C13.9805 9.03047 7.28206 6.30469 6.84378 6.15C5.96722 5.84062 5.05081 5.88516 4.643 6.58828C4.22816 7.30312 4.35941 8.07422 5.28284 8.57578C5.53363 8.71172 12.3657 11.6133 12.3657 11.6133C12.7641 11.7797 12.6164 12.3234 12.1969 12.1781C12.1969 12.1781 3.72894 8.64609 3.34222 8.475C2.46566 8.08828 1.44612 8.36484 1.11097 9.14297C0.785187 9.90469 1.17191 10.7531 2.06722 11.1562C2.35081 11.2852 8.33909 13.8258 10.7532 14.8805C10.9149 14.9508 11.0672 15.0727 10.9735 15.2953C10.9735 15.2977 10.8868 15.5484 10.575 15.4125C9.92113 15.1313 3.443 12.4312 3.08441 12.2883C2.26409 11.9602 1.38284 12.0211 1.01253 12.8484C0.675031 13.6055 0.975031 14.5383 1.89378 14.8898L9.77816 18.2414C9.77816 18.2414 10.0453 18.375 9.9305 18.6422Z" fill="#FAC036"/>
<path d="M23.7773 15.0938C24.0421 15.7078 24.464 16.1531 23.8335 16.6102C22.9757 17.2313 21.2203 15.1031 20.5171 14.3883C19.6429 13.4953 18.7921 12.5508 17.9015 11.6695C16.6898 10.4672 15.0281 8.83594 13.8445 7.60078C12.4734 6.17109 11.1023 7.87734 11.7515 9.20391C11.8124 9.33516 11.9015 9.46406 12.0164 9.6C12.3679 10.0008 12.7476 10.3734 13.1203 10.7555C13.1249 10.7602 16.0382 13.5492 16.9921 14.5125C17.4257 14.9625 17.1914 15.518 16.9148 15.2672C16.6382 15.0164 14.7679 13.3453 13.9195 12.4805C12.5859 11.1211 10.8843 9.42422 9.36088 8.15625C8.49838 7.43672 6.47104 8.89453 8.38354 10.7719C8.4562 10.8445 14.0976 16.3734 14.8124 17.0789C15.0445 17.3063 14.6718 17.5453 14.6718 17.5453C14.5171 17.6813 8.43979 11.918 8.21245 11.6906C6.96792 10.4414 4.82573 11.9859 6.57885 13.7742C7.2187 14.4258 9.24604 16.5094 10.5632 17.8711C10.9992 18.3234 12.0703 19.2938 12.7124 19.8539C12.846 19.9711 12.5179 20.1094 12.4382 20.2172C12.321 20.3789 7.95932 16.4297 7.50932 16.0688C6.50854 15.2672 4.77417 16.6781 5.79135 18.0352C6.31401 18.7312 9.94682 22.1672 10.4718 22.6664C13.1976 25.2563 13.7203 25.8984 17.0367 28.2445C17.4585 28.5445 18.6609 29.4727 18.307 29.3227C13.6499 27.3258 9.55073 22.7039 6.00698 19.4742C4.97104 18.5297 4.17417 16.7719 5.39995 15.6C5.88276 15.1406 6.21323 15.0422 6.83901 15.0797C6.83901 15.0797 6.80151 15.0352 6.25542 14.4539C5.72807 13.8938 4.51401 12.2063 5.64135 11.1164C6.52729 10.2586 7.5187 10.6336 7.4437 10.5492C6.60229 9.54375 6.70542 8.43047 7.4226 7.75781C8.2851 6.94688 9.45698 6.91172 10.9781 8.48203C10.8843 8.20078 10.6664 7.50703 11.3929 6.84844C12.7992 5.56875 13.9898 6.4875 16.6687 9.37031C18.8953 11.7586 22.3476 15.2812 22.3476 15.2812C22.5445 15.457 23.0578 16.0734 23.3789 15.8789C23.5664 15.7641 23.271 15.4195 22.9617 14.7117C21.8507 12.1781 21.8273 9.97734 24.3093 9.07031C24.4687 8.92266 23.3671 9.88828 23.0343 10.9758C22.7132 12.0211 23.1679 13.6758 23.7773 15.0938Z" fill="#E48C15"/>
<path d="M26.414 5.00625L23.5194 7.33125M23.7374 0.73125L22.2351 5.44453L23.7374 0.73125ZM9.9585 5.32031L7.45068 2.33672L9.9585 5.32031ZM12.3726 0.73125L11.8171 5.08125L12.3726 0.73125Z" stroke="#444444" stroke-miterlimit="10" stroke-linecap="square"/>
</svg>
