<svg width="30" height="30" viewBox="0 0 30 30" fill="none" xmlns="http://www.w3.org/2000/svg">
<path d="M13.8047 18.4219L4.125 28.2422C3.77344 28.5938 3.375 28.8281 2.95313 28.9453C3.91406 29.2266 4.96875 28.9922 5.71875 28.2422L14.6719 19.3125C14.8594 19.125 15.1641 19.125 15.3281 19.3125L14.4609 18.4219C14.2969 18.2344 13.9922 18.2344 13.8047 18.4219ZM19.2891 15.3281C19.1016 15.1406 19.1016 14.8594 19.2891 14.6719L28.2422 5.74219C29.3438 4.64062 29.3438 2.85937 28.2422 1.75781C27.1406 0.65625 25.3828 0.65625 24.2812 1.75781L15.3281 10.6875C15.1406 10.875 14.8594 10.875 14.6719 10.6875L5.74219 1.75781C4.64062 0.65625 2.85938 0.65625 1.75781 1.75781C1.66406 1.85156 1.59375 1.94531 1.52344 2.03906C1.57031 1.96875 1.61719 1.92187 1.66406 1.875C2.76562 0.796875 4.03125 1.28906 5.13281 2.39062L13.9453 11.4141C14.1328 11.6016 14.4141 11.6016 14.6016 11.4141L23.8125 2.22656C24.9141 1.125 26.0156 1.03125 27.1172 2.13281C28.2188 3.23438 28.0312 4.38281 26.9297 5.48438L17.7188 14.6719C17.5312 14.8594 17.5312 15.1406 17.7188 15.3281C17.7188 15.3281 26.6484 24.2812 26.625 24.2812C27.7266 25.3828 28.1484 26.625 27.0469 27.7266C25.9453 28.8281 24.5625 28.5469 23.4609 27.4688L24.2578 28.2656C25.3594 29.3672 27.1406 29.3672 28.2422 28.2656C29.3438 27.1641 29.3438 25.4062 28.2422 24.3047C28.2422 24.2812 19.2891 15.3281 19.2891 15.3281Z" fill="#CC3333"/>
<path d="M27.0469 27.7266C28.1484 26.625 27.7266 25.3828 26.625 24.2813C26.6484 24.2813 17.7188 15.3281 17.7188 15.3281C17.5312 15.1406 17.5312 14.8594 17.7188 14.6719L26.9297 5.48438C28.0312 4.38281 28.2188 3.23438 27.1172 2.13281C26.0156 1.03125 24.9141 1.125 23.8125 2.22656L14.6016 11.4141C14.4141 11.6016 14.1328 11.6016 13.9453 11.4141L5.13281 2.39063C4.03125 1.28906 2.76562 0.796875 1.66406 1.875C1.61719 1.92188 1.57031 1.96875 1.52344 2.03906C0.65625 3.14063 0.75 4.71094 1.75781 5.71875L10.6875 14.6719C10.875 14.8594 10.875 15.1641 10.6875 15.3281L1.75781 24.2578C0.65625 25.3594 0.65625 27.1406 1.75781 28.2422C2.10938 28.5938 2.50781 28.8281 2.92969 28.9453C3.35156 28.8047 3.77344 28.5703 4.10156 28.2422L13.7812 18.4219C13.9688 18.2344 14.2734 18.2344 14.4375 18.4219L15.3047 19.3125L23.4375 27.4688C24.5625 28.5469 25.9453 28.8281 27.0469 27.7266Z" fill="#F44336"/>
<path opacity="0.2" d="M12.8907 13.2188C12.6329 12.8438 5.32037 5.46094 5.32037 5.46094C5.32037 5.46094 4.78131 4.85156 4.21881 5.27344C3.70318 5.67188 3.96099 6.28125 4.24224 6.58594C4.52349 6.89063 11.0391 13.5469 11.3672 13.8281C11.6719 14.1094 12.2813 14.1562 12.6563 13.9688C13.0313 13.7812 13.0782 13.4766 12.8907 13.2188Z" fill="white"/>
<path opacity="0.2" d="M2.85938 5.22656C3.28653 5.22656 3.63281 4.88028 3.63281 4.45313C3.63281 4.02597 3.28653 3.67969 2.85938 3.67969C2.43222 3.67969 2.08594 4.02597 2.08594 4.45313C2.08594 4.88028 2.43222 5.22656 2.85938 5.22656Z" fill="white"/>
<path opacity="0.2" d="M16.8984 19.1719C17.1562 19.5469 24.5859 26.8125 24.5859 26.8125C24.5859 26.8125 25.1249 27.4219 25.6874 26.9766C26.2031 26.5781 25.9218 25.9688 25.6406 25.6641C25.3593 25.3594 18.7499 18.7969 18.4218 18.5156C18.1171 18.2344 17.5078 18.2109 17.1328 18.3984C16.7578 18.5859 16.7109 18.9141 16.8984 19.1719Z" fill="white"/>
</svg>
