<svg width="30" height="30" viewBox="0 0 30 30" fill="none" xmlns="http://www.w3.org/2000/svg">
<path d="M24.1711 24.007C19.5469 28.6312 11.6578 30.7195 5.29451 24.3539C-1.06877 17.9883 1.01717 10.1016 5.64139 5.47734C8.2031 2.90859 11.4258 1.38516 14.7234 1.17187C18.3211 0.95625 21.7172 2.33203 24.5179 5.13281C27.3187 7.93359 28.6781 11.3133 28.4625 14.9109C28.2469 18.2063 26.7187 21.4547 24.1711 24.007Z" fill="url(#paint0_radial_3_525)"/>
<path d="M17.3438 1.29844C19.65 1.83984 21.7969 3.07734 23.6977 4.96406C26.5102 7.77656 27.8578 11.1469 27.6422 14.7422C27.4219 18.0469 25.8937 21.2883 23.3414 23.8406C20.3484 26.8336 15.9867 28.7625 11.5547 28.0242C16.2656 29.168 20.9906 27.1875 24.1711 24.007C26.7187 21.4547 28.2469 18.2062 28.4625 14.9086C28.6781 11.3109 27.3188 7.93125 24.518 5.13047C22.4062 3.01875 19.9547 1.71797 17.3438 1.29844Z" fill="#EB8F00"/>
<path d="M22.6663 9.27187C22.0171 9.08437 21.328 9.40547 21.0538 10.0242C19.8467 12.2194 18.3304 14.2298 16.5514 15.9937C14.7889 17.7727 12.778 19.2891 10.5819 20.4937C10.284 20.6277 10.0442 20.8642 9.90607 21.1602C9.76797 21.4562 9.74082 21.7919 9.82957 22.1062C10.0218 22.7508 10.6663 23.0672 11.2733 23.2945C14.6741 24.5672 18.4171 23.6203 21.2928 20.7609L21.321 20.7352C24.178 17.8594 25.1249 14.1164 23.8522 10.7133C23.6272 10.1086 23.3085 9.46172 22.6663 9.27187Z" fill="#422B0D"/>
<path d="M21.1125 20.5266L21.0984 20.5406V20.5547L21.1125 20.5266ZM16.7836 16.1719L16.7578 16.1953L16.7344 16.2211L16.7836 16.1719Z" fill="#422B0D"/>
<path d="M16.7836 16.1719L16.7578 16.1953L16.7344 16.2211L16.7836 16.1719ZM21.1125 20.5266L21.0984 20.5406V20.5547L21.1125 20.5266Z" fill="#422B0D"/>
<path d="M23.2969 17.4328C23.1774 17.4328 23.0625 17.4492 22.95 17.4586C21.6774 17.5406 20.4821 18.0961 19.5985 19.0148C18.6516 19.9242 18.0516 21.1383 17.9016 22.4437C17.8875 22.5586 17.8735 22.6781 17.8664 22.7906C17.8594 22.9031 17.8852 22.9969 17.8992 23.0906C19.1664 22.5334 20.3176 21.7432 21.293 20.7609L21.3211 20.7352C22.261 19.8 23.025 18.7031 23.5758 17.4984C23.4844 17.4703 23.3906 17.4492 23.2969 17.4328Z" fill="#ED7770"/>
<path d="M21.0538 10.0242C19.8467 12.2194 18.3304 14.2298 16.5514 15.9937C14.7889 17.7727 12.778 19.2891 10.5819 20.4937C10.284 20.6277 10.0442 20.8642 9.90607 21.1602C9.76797 21.4562 9.74082 21.7919 9.82957 22.1062C9.86004 22.2023 9.89988 22.2937 9.95144 22.3805C10.0475 22.3477 10.1389 22.3102 10.2303 22.2656C13.2239 21.2728 15.9367 19.5788 18.1428 17.325C20.3059 15.2094 21.9565 12.6271 22.9686 9.77578C23.0085 9.67969 23.0436 9.58125 23.0741 9.48047C22.9522 9.38672 22.8139 9.31406 22.6663 9.27187C22.0171 9.08437 21.328 9.40547 21.0538 10.0242Z" fill="white"/>
<path d="M16.7343 16.3453C18.11 15.0141 19.01 13.7062 20.0929 12.1125C20.3624 11.7141 20.6179 11.3062 20.864 10.8867L21.0421 10.5703C21.089 10.4883 21.1405 10.4086 21.2015 10.3359C21.3093 10.2023 21.4475 10.0992 21.6069 10.0336C21.9772 9.89766 22.3827 9.89062 22.7577 10.0148C23.5194 10.3805 24.1827 11.6836 24.0983 11.4398C24.0983 11.4398 23.96 10.8937 23.9554 10.8867C23.7679 10.418 23.5757 9.88828 23.0905 9.48047C22.8356 9.28595 22.5328 9.16407 22.2143 9.12776C21.8957 9.09145 21.5733 9.14206 21.2811 9.27422C21.003 9.40044 20.7612 9.5947 20.578 9.83906C20.489 9.95156 20.4093 10.0734 20.3436 10.2023L20.1866 10.5117C19.9686 10.9219 19.7366 11.3273 19.4835 11.7234C18.5835 13.2258 17.5218 14.625 16.3171 15.8953L16.2796 15.9328C15.036 17.1232 13.6634 18.1711 12.1874 19.057C11.789 19.2914 11.3858 19.5258 10.9757 19.7602L10.6569 19.9219C10.528 19.9875 10.4061 20.0648 10.2936 20.1562C10.048 20.3387 9.85276 20.5807 9.72645 20.8594C9.60315 21.1498 9.55986 21.468 9.60108 21.7808C9.64229 22.0936 9.76651 22.3897 9.96083 22.6383C10.5913 23.4609 12.0304 23.5758 12.0374 23.5758C12.2718 23.6602 10.8515 23.0555 10.4858 22.2938C10.3569 21.9322 10.3569 21.5373 10.4858 21.1758C10.5468 21.0117 10.6475 20.8664 10.7811 20.7539C10.8538 20.693 10.9335 20.6414 11.0155 20.5969L11.3319 20.4188C11.7491 20.1844 12.1569 19.9148 12.5577 19.6453C14.1491 18.5625 15.3702 17.7703 16.6944 16.3828" fill="#EB8F00"/>
<path d="M26.9835 7.34531C27.2647 9.13594 25.6194 10.8328 24.1265 11.0344C23.0765 11.175 21.9046 10.9336 20.1421 10.4953C19.8819 10.4461 19.6171 10.3687 19.3265 10.2961C18.253 9.99844 17.1983 9.63984 16.1647 9.22266C16.0669 9.18669 15.9857 9.11585 15.9368 9.02372C15.8879 8.93159 15.8748 8.82466 15.8999 8.72344C15.9304 8.63438 15.9913 8.55703 16.0687 8.50547C16.8594 7.69489 17.7483 6.98628 18.7147 6.39609C21.1546 4.88672 22.0827 4.68281 23.1327 4.54219C24.5812 4.30547 26.6788 5.39062 26.9835 7.34531Z" fill="url(#paint1_radial_3_525)"/>
<path d="M24.7312 5.66953C25.4132 5.99297 25.4179 6.92812 24.3773 7.07578C23.7093 7.16484 20.271 7.48828 20.6718 6.85312C21.328 5.81016 23.7679 5.2125 24.7312 5.66953Z" fill="#81D4FA"/>
<path d="M17.0274 7.28906L14.8641 9.22969L15.6657 6.14766C15.6727 6.11016 15.6798 6.075 15.6821 6.0375C15.7032 5.91036 15.699 5.78031 15.6698 5.6548C15.6406 5.52928 15.5868 5.41077 15.5117 5.30604C15.4366 5.20132 15.3416 5.11245 15.2321 5.04451C15.1225 4.97658 15.0007 4.93092 14.8735 4.91016C14.747 4.88906 14.6157 4.89375 14.4891 4.92187C14.211 4.99845 13.9631 5.15869 13.779 5.38089C13.595 5.60308 13.4837 5.87649 13.4602 6.16406C13.3266 7.52578 13.0126 10.7344 12.8907 11.9836C12.8532 12.1078 12.9235 12.2391 13.0477 12.2766C13.1298 12.3023 13.2188 12.2789 13.2798 12.218L18.129 9.15234L18.2251 9.08437C18.811 8.63437 18.954 7.77656 18.4805 7.27969C18.1196 6.9 17.4962 6.93047 17.0274 7.28906Z" fill="#422B0D"/>
<path d="M6.07025 24.375C5.98588 23.3648 5.98353 22.4555 6.89525 19.8609C7.2515 18.8344 7.73431 17.857 8.33197 16.95C8.36478 16.8656 8.42572 16.7953 8.50306 16.7484C8.68822 16.6547 8.91322 16.718 9.02572 16.8914C9.62806 17.7727 10.1788 18.6867 10.6804 19.6289C10.807 19.8867 10.9335 20.1164 11.0343 20.3508C11.8078 21.9188 12.2742 22.9664 12.3585 23.9766C12.4781 25.4133 11.2288 27.3023 9.49681 27.4102C7.6101 27.518 6.15931 25.7813 6.07025 24.375Z" fill="url(#paint2_radial_3_525)"/>
<path d="M7.7344 21.6023C8.24299 21.0938 8.64846 24.375 8.70237 25.0195C8.7844 26.0227 7.90783 26.2102 7.46721 25.6406C6.83908 24.8438 6.89768 22.4273 7.7344 21.6023Z" fill="#81D4FA"/>
<path d="M7.07116 18.4594L8.6321 16.0055L5.7235 17.3039L5.62507 17.3437C5.11179 17.5172 4.55397 17.243 4.37819 16.7297C4.336 16.6078 4.3196 16.4789 4.32897 16.35C4.35848 16.0628 4.4758 15.7917 4.66495 15.5736C4.8541 15.3555 5.10588 15.2011 5.386 15.1312L11.0157 13.6055C11.1329 13.5492 11.2735 13.5984 11.3298 13.7156C11.3673 13.793 11.3602 13.8844 11.3087 13.9523L9.08913 19.2375C9.07507 19.275 9.05866 19.3102 9.03991 19.3453C8.69304 19.9969 7.86804 20.2828 7.30085 19.8937C6.86725 19.5984 6.79694 18.9844 7.07116 18.4594Z" fill="#422B0D"/>
<defs>
<radialGradient id="paint0_radial_3_525" cx="0" cy="0" r="1" gradientUnits="userSpaceOnUse" gradientTransform="translate(14.5606 14.3093) rotate(-45) scale(13.4046)">
<stop offset="0.5" stop-color="#FDE030"/>
<stop offset="0.92" stop-color="#F7C02B"/>
<stop offset="1" stop-color="#F4A223"/>
</radialGradient>
<radialGradient id="paint1_radial_3_525" cx="0" cy="0" r="1" gradientUnits="userSpaceOnUse" gradientTransform="translate(18.1602 7.14931) rotate(-97.4809) scale(7.39513 11.4376)">
<stop offset="0.46" stop-color="#29B6F6"/>
<stop offset="1" stop-color="#1E88E5"/>
</radialGradient>
<radialGradient id="paint2_radial_3_525" cx="0" cy="0" r="1" gradientUnits="userSpaceOnUse" gradientTransform="translate(9.24419 17.2717) rotate(175.426) scale(7.11485 10.89)">
<stop offset="0.46" stop-color="#29B6F6"/>
<stop offset="1" stop-color="#1E88E5"/>
</radialGradient>
</defs>
</svg>
