<svg width="30" height="30" viewBox="0 0 30 30" fill="none" xmlns="http://www.w3.org/2000/svg">
<path d="M14.6484 29.0625C16.2017 29.0625 17.4609 27.8033 17.4609 26.25C17.4609 24.6967 16.2017 23.4375 14.6484 23.4375C13.0951 23.4375 11.8359 24.6967 11.8359 26.25C11.8359 27.8033 13.0951 29.0625 14.6484 29.0625Z" fill="#CC3333"/>
<path d="M14.2734 28.6641C15.6067 28.6641 16.6875 27.5833 16.6875 26.25C16.6875 24.9168 15.6067 23.8359 14.2734 23.8359C12.9402 23.8359 11.8594 24.9168 11.8594 26.25C11.8594 27.5833 12.9402 28.6641 14.2734 28.6641Z" fill="#F44336"/>
<path opacity="0.2" d="M12.914 25.4062C13.1953 24.9844 13.8046 24.6328 14.4374 24.5391C14.6015 24.5156 14.7421 24.5156 14.8828 24.5625C14.9765 24.6094 15.0703 24.7031 14.9999 24.7969C14.9531 24.8906 14.8359 24.9141 14.7421 24.9375C14.1562 25.1016 13.6171 25.5 13.289 25.9687C13.1718 26.1562 12.9609 26.6484 12.7265 26.5312C12.4921 26.3672 12.539 25.9219 12.914 25.4062Z" fill="white"/>
<path d="M10.8047 5.69531C10.3125 6.16406 10.0078 6.72656 9.86719 7.42969C9.79687 7.875 9.39844 8.17969 8.95312 8.17969H10.5703C11.0156 8.17969 11.4141 7.875 11.4844 7.42969C11.6016 6.72656 11.9297 6.16406 12.4219 5.69531C12.9141 5.25 13.5234 4.96875 14.25 4.85156C13.9922 4.80469 13.7109 4.78125 13.4297 4.78125C12.3516 4.80469 11.4844 5.10937 10.8047 5.69531Z" fill="#CC3333"/>
<path d="M20.9766 2.85938C19.5469 1.57031 17.5781 0.9375 15.0469 0.9375C14.7656 0.9375 14.5078 0.9375 14.25 0.960937C16.3828 1.07812 18.0937 1.71094 19.3594 2.85938C20.7891 4.14844 21.4922 5.95312 21.4922 8.25C21.4922 10.3125 20.5312 12.3281 18.6328 14.3203L16.3359 16.5703L16.2656 16.6406C15.5859 17.4375 15.1875 18.5156 15.0469 19.8984C15 20.3672 14.6016 20.7422 14.1094 20.7422H15.7266C16.1953 20.7422 16.6172 20.3672 16.6641 19.8984C16.7812 18.5156 17.2031 17.4375 17.8828 16.6406L17.9531 16.5703L20.25 14.3203C22.1719 12.3281 23.1094 10.3125 23.1094 8.25C23.0859 5.95312 22.3828 4.14844 20.9766 2.85938Z" fill="#CC3333"/>
<path d="M15.0469 19.9219C15.1641 18.5391 15.5859 17.4609 16.2656 16.6641L16.3359 16.5938L18.6328 14.3438C20.5547 12.3516 21.4922 10.3359 21.4922 8.27344C21.4922 5.97656 20.7891 4.17188 19.3594 2.88281C18.0937 1.73438 16.4062 1.10156 14.25 0.984375C12.1641 1.10156 10.4531 1.75781 9.11719 2.90625C7.875 3.98438 7.125 5.39062 6.91406 7.14844C6.84375 7.71094 7.28906 8.17969 7.85156 8.17969H8.97656C9.42187 8.17969 9.82031 7.875 9.89062 7.42969C10.0078 6.72656 10.3359 6.16406 10.8281 5.69531C11.4844 5.08594 12.375 4.78125 13.4531 4.78125C13.7344 4.78125 14.0156 4.80469 14.2734 4.85156C14.5312 4.80469 14.7891 4.78125 15.0703 4.78125C16.1953 4.78125 17.0625 5.08594 17.6484 5.71875C18.2344 6.35156 18.5391 7.24219 18.5391 8.41406C18.5391 9.30469 18.2812 10.1484 17.7891 10.8984C17.4609 11.4141 16.6875 12.2578 15.4453 13.4531C14.2266 14.6484 13.3828 15.75 12.9844 16.7344C12.6562 17.5313 12.4453 18.5391 12.3984 19.7578C12.375 20.2969 12.7969 20.7422 13.3359 20.7422H14.1562C14.5781 20.7656 15 20.3906 15.0469 19.9219Z" fill="#F44336"/>
<path opacity="0.2" d="M9.28116 3.72656C10.078 2.74219 11.6015 2.03906 13.1249 1.94531C13.4999 1.92188 13.8749 1.94531 14.1796 2.10938C14.414 2.22656 14.578 2.48438 14.414 2.71875C14.2733 2.90625 13.9921 2.97656 13.7577 3.02344C12.328 3.30469 10.9452 4.125 10.0312 5.20313C9.6796 5.625 9.09366 6.79688 8.57804 6.42188C8.03897 5.97656 8.29679 4.92188 9.28116 3.72656Z" fill="white"/>
</svg>
