<svg width="30" height="30" viewBox="0 0 30 30" fill="none" xmlns="http://www.w3.org/2000/svg">
<path d="M22.0288 2.10234C16.8937 2.10234 15.0069 7.35 15.0069 7.35C15.0069 7.35 13.146 2.10234 7.97569 2.10234C4.08976 2.10234 -0.33993 5.18203 1.29601 12.1828C2.93194 19.1836 15.021 27.9047 15.021 27.9047C15.021 27.9047 27.0655 19.1836 28.7038 12.1828C30.3398 5.18203 26.2288 2.10234 22.0288 2.10234Z" fill="#F44336"/>
<path d="M7.18354 2.625C11.2148 2.625 13.2164 6.95859 13.8632 8.71406C13.9546 8.96484 14.3039 8.97187 14.4093 8.72813L15 7.34766C14.1679 4.68984 11.8804 2.10234 7.97573 2.10234C6.35854 2.10234 4.64995 2.63672 3.32104 3.76406C4.49526 2.99297 5.87104 2.625 7.18354 2.625ZM22.0289 2.10234C20.789 2.10234 19.6593 2.37187 18.7781 2.91562C19.3968 2.67656 20.1632 2.625 20.9226 2.625C24.7218 2.625 28.1226 5.50547 26.5875 12.1641C25.2703 17.8805 17.5734 24.8156 15.2226 27.4617C15.0726 27.6305 15.021 27.9023 15.021 27.9023C15.021 27.9023 27.0656 19.1813 28.7039 12.1805C30.3398 5.18203 26.2359 2.10234 22.0289 2.10234Z" fill="#CC3333"/>
<path d="M3.9938 5.81719C4.8727 4.72031 6.44302 3.81328 7.77427 4.85859C8.4938 5.42344 8.17973 6.58125 7.5352 7.06875C6.5977 7.78125 5.78208 8.21016 5.2102 9.32578C4.86802 9.99609 4.66177 10.7297 4.5563 11.4773C4.51411 11.7727 4.12739 11.8453 3.98208 11.5852C2.99302 9.83203 2.71177 7.41797 3.9938 5.81719ZM18.0844 8.12344C17.6719 8.12344 17.3813 7.725 17.5313 7.34062C17.8102 6.63281 18.1711 5.94844 18.6047 5.33906C19.2469 4.43906 20.468 3.91406 21.2415 4.46016C22.0336 5.01797 21.9305 6.13359 21.375 6.67266C20.1821 7.82812 18.6774 8.12344 18.0844 8.12344Z" fill="#FF8A80"/>
</svg>
