<svg width="30" height="30" viewBox="0 0 30 30" fill="none" xmlns="http://www.w3.org/2000/svg">
<path d="M18.6235 12.7031C20.0649 12.2953 22.6196 12.3492 23.3672 12.4031C24.675 12.4969 25.9828 12.4688 26.2078 14.0555C26.3578 15.1242 25.9992 16.0969 24.4149 16.2703C23.8571 16.3312 23.175 16.3641 22.6125 16.4531L22.1719 16.9383C22.6922 16.868 23.8852 16.8914 24.2438 16.8469C25.7578 16.6617 27.0375 17.2687 27.2297 18.7242C27.3985 19.9992 26.4375 20.9836 25.0735 20.9086C24.6071 20.8828 23.2899 21.0633 21.9821 21.0984L21.8813 21.3633L21.8344 21.443C22.6641 21.4664 23.4586 21.4992 24.0235 21.5273C25.5352 21.6023 26.3602 22.4133 26.3391 23.4914C26.3133 24.8016 25.0875 25.2938 24.211 25.3664C23.5547 25.4203 21.2063 25.3523 19.6289 25.2234L19.3805 25.6477C19.493 25.65 22.5141 25.7953 22.6289 25.8023C24.0141 25.9055 24.6047 26.407 24.5696 27.3961C24.5203 28.7836 23.0391 29.1516 22.2375 29.2781C20.9367 29.4844 19.2024 29.4234 17.9391 29.4586C15.2063 29.5336 9.61408 29.6555 7.00315 27.368C6.11252 26.5875 5.21486 25.5258 4.4508 25.2211C2.85002 24.5836 2.71174 22.4977 2.7844 19.8609C2.81955 18.5859 2.38127 15.007 3.92815 14.1398C6.09846 12.9234 9.77814 12.0047 11.0016 11.0437C13.0078 9.46641 14.1797 6.9 14.7141 5.39766C15.7313 2.53594 16.0406 0.46875 17.8196 0.46875C20.9367 0.46875 20.8547 3.25312 20.9133 4.64531C21.0281 7.37109 17.6649 12.4148 18.6235 12.7031Z" fill="#FAC036"/>
<path d="M15.9421 18.9703C15.9726 20.3742 17.0554 20.9766 17.1046 21.0023C16.4835 20.9883 15.1382 21.6188 15.1382 22.957C15.1382 24.0609 15.7382 24.9211 16.3405 25.2141C15.9444 25.2984 15.1968 25.8375 15.1968 27.0141C15.1968 28.7391 16.4765 29.3695 17.4444 29.4891C18.4124 29.6086 21.103 29.4469 21.9913 29.3109C22.4671 29.2383 19.6335 29.2055 17.5593 28.9336C16.964 28.8563 16.2538 28.2961 16.139 27.5414C16.139 27.5414 15.9702 26.5453 16.8796 25.9711C16.8796 25.9711 17.264 25.6406 19.0476 25.6547L19.5866 25.6617C19.7554 25.6734 21.9093 25.7484 22.6265 25.8C22.9429 25.8234 23.2147 25.868 23.4491 25.9336C23.4116 25.8797 23.3694 25.7906 23.3835 25.6617C23.414 25.3898 23.5921 25.3781 23.639 25.3781L23.2124 25.3547L21.6937 25.268C20.1796 25.1766 18.0468 25.0313 17.8007 24.9328C17.8007 24.9328 16.3147 24.5578 16.3147 23.0344C16.3147 23.0344 16.2374 21.7383 18.2202 21.6773C18.2202 21.6773 22.9054 21.4078 24.8882 21.6703C24.8882 21.6703 24.6046 21.143 25.0733 20.9063C25.0733 20.9063 21.7288 20.9883 19.6335 21.0445C17.5382 21.1008 17.0905 19.9875 17.0366 19.3805C17.0296 19.2891 17.0108 19.1438 17.0108 18.9727C17.0108 17.7656 18.0702 17.6063 19.5866 17.4094C22.8585 16.9805 24.2437 16.8469 24.2437 16.8469C24.4241 16.8258 24.5952 16.8141 24.7616 16.8164C24.6702 16.7648 24.546 16.6688 24.5296 16.5094C24.5202 16.4063 24.5718 16.2492 24.5718 16.2492C24.5718 16.2492 23.1608 16.3641 20.9835 16.6547C18.8085 16.9453 17.0694 16.8117 16.9124 15.5391C16.7976 14.6063 16.9546 14.0133 17.3577 13.5516C17.8546 12.982 18.6538 12.6984 18.6538 12.6984C18.6538 12.6984 18.5624 12.6797 18.5108 12.6117C18.4593 12.5414 18.4569 12.4313 18.4569 12.4313C16.6827 12.6563 15.4687 13.7836 15.5694 15.232C15.6397 16.2234 15.9022 16.8844 16.5608 17.2055C16.5632 17.2031 15.9116 17.5688 15.9421 18.9703Z" fill="#E48C15"/>
<path d="M16.6664 15.825L15.8883 16.05C15.8883 16.05 17.0414 20.2945 12.7851 23.2195C12.7851 23.2195 12.239 23.5852 12.5039 23.8594C12.5039 23.8594 12.689 24.1781 13.4719 23.5805C13.4719 23.5781 17.625 20.8687 16.6664 15.825Z" fill="#E48C15"/>
</svg>
